<svg width="1280" height="720" xmlns="http://www.w3.org/2000/svg" xmlns:xlink="http://www.w3.org/1999/xlink" overflow="hidden"><defs><clipPath id="clip0"><path d="M0 0 1280 0 1280 720 0 720Z" fill-rule="evenodd" clip-rule="evenodd"/></clipPath></defs><g clip-path="url(#clip0)"><rect x="0" y="0" width="1280" height="720" fill="#FFFFFF"/><path d="M497.225 279.069 497.225 300.319 504.624 300.319C509.43 300.319 512.732 299.274 514.53 297.185 516.16 295.304 516.975 292.755 516.975 289.538 516.975 286.361 516.045 283.822 514.185 281.921 512.325 280.02 509.159 279.069 504.686 279.069ZM602.725 261.194 624.663 261.194 641.915 306.694 660.163 261.194 682.288 261.194 695.163 346.506 672.975 346.506 666.669 297.381 646.064 346.506 637.26 346.506 617.593 297.381 610.35 346.506 588.225 346.506ZM552.038 261.194 574.225 261.194 574.225 346.506 552.038 346.506ZM475.038 261.194 510.35 261.194C520.392 261.194 528.017 264.128 533.225 269.997 537.725 275.033 539.975 281.463 539.975 289.288 539.975 296.987 538.163 303.356 534.538 308.392 529.829 314.927 522.017 318.194 511.1 318.194L497.225 318.194 497.225 346.506 475.038 346.506ZM737.663 259.131C746.871 259.131 755.892 261.444 764.725 266.069L755.85 283.319C751.004 279.527 746.117 277.631 741.187 277.631 738.806 277.631 736.676 278.238 734.795 279.451 732.665 280.831 731.6 282.671 731.6 284.971 731.6 287.229 732.998 289.173 735.794 290.804 737.047 291.557 740.804 292.854 747.064 294.694 754.911 296.988 760.504 300.242 763.842 304.456 766.723 308.043 768.163 312.652 768.163 318.284 768.163 332.717 761.829 342.123 749.163 346.503 744.746 348.047 739.996 348.819 734.913 348.819 724.246 348.819 714.35 345.59 705.225 339.131L714.725 321.256C721.406 327.298 727.94 330.319 734.328 330.319 737.209 330.319 739.651 329.645 741.656 328.298 743.994 326.783 745.163 324.637 745.163 321.859 745.163 319.333 743.869 317.229 741.281 315.545 739.361 314.282 736.126 312.999 731.577 311.694 726.068 310.071 722.603 308.947 721.184 308.323 718.93 307.366 717.01 306.242 715.424 304.952 710.875 301.206 708.6 295.546 708.6 287.972 708.6 280.065 710.954 273.51 715.663 268.308 721.163 262.19 728.496 259.131 737.663 259.131Z" stroke="#000000" stroke-width="8" stroke-linejoin="round" stroke-miterlimit="10" fill="#318795" fill-rule="evenodd"/><text fill="#000000" fill-opacity="0" font-family="Arial,Arial_MSFontService,sans-serif" font-size="89.6875" x="475.038" y="337.608">PIMS</text><text fill="#9489E3" font-family="Calibri,Calibri_MSFontService,sans-serif" font-weight="400" font-size="24" transform="translate(444.1 380)">National Parking Management System</text></g></svg>